<svg id="Debog" width="2623" height="1003" version="1.1" viewBox="0 0 2623 1000"
     xmlns="http://www.w3.org/2000/svg"
     xmlns:xlink="http://www.w3.org/1999/xlink">
  <script xlink:href="debog.js"/>
  <style>
    :root {
      --debogColor: #ff4000;
    }
    #Debog {
      cursor: pointer
    }

    #Debog :is(#WingL, #WingR) {
      transform-origin: 500px 500px;
    }

    #Debog :is(#WingL, #WingR, #Legs) {
      fill: var(--debogColor);
      opacity: 0;
      stroke: none;
    }

    #Debog :is(#Nose, #Mouth) {
      fill: none;
      opacity: 0;
      stroke: var(--debogColor);
    }

    #Debog .Letters path {
      fill: #fff;
      opacity: 0;
    }
  </style>
  <path
    id="WingR"
    d="m485 370a130 130 0 0 0-66 28l-39-39a15 15 0 1 0-21 21.2l39 39a130 130 0 0 0-28 80.8h-320c0.14-224 171-409 394-436 41-6 41 21 41 21z"/>
  <path
    id="WingL"
    d="m515 370a130 130 0 0 1 66 28l39-39a15 15 0 1 1 21 21.2l-39 39a130 130 0 0 1 28 80.8h320c-0.14-224-171-409-394-436-41-6-41 21-41 21z"/>
  <path
    id="Nose"
    d="m440 561a85 85 0 0 1-25-60 85 85 0 0 1 85-84 85 85 0 0 1 85 85 85 85 0 0 1-25 60"
    stroke-width="30"/>
  <path
    id="Mouth"
    d="m540 500a40 40 0 0 0-40-40 40 40 0 0 0-40 40 40 40 0 0 0 40 40 40 40 0 0 0 40-40z"
    stroke-width="20"/>
  <path
    id="Legs"
    d="m113 590c9.6 3.3 13.4 12.5 13.5 20a22 22 0 0 1-22 22 22 22 0 0 1-22-22c0.47-8 4.3-14.6 10.5-18.5l-6.57-49 25.3-28.4h28.1l-31.4 35.6zm99.8 60.2a23.1 23.1 0 0 1-23.1 23.2 23 23 0 0 1-23-23c-0.09-7.74 4.57-14.1 9.37-18.7l-7.66-63.2 44.5-49.9h27.6l-50.5 57.2 6.4 52.4c10.6 2.73 16 14 16.4 22zm51 11-8.5-69.5 61.5-69h25l-67 76 7 59a27 27 0 0 1 23.3 27c0 15.1-12.3 27.3-27.3 27.3-15.1 0-27.3-12.2-27.3-27.3a27 27 0 0 1 13-23.1zm623-71.1c-8.17 3.34-13.4 12.5-13.5 20a22 22 0 0 0 22 22 22 22 0 0 0 22-22c-0.47-8-4.27-14.6-10.5-18.5l6.57-49-25.3-28.4h-28.1l31.4 35.6zm-99.9 60.2a23 23 0 0 0 23.1 23.1 23 23 0 0 0 23-23c0.09-7.74-4.57-14.1-9.38-18.7l7.67-63.2-44.5-49.9h-27.6l50.5 57.2-6.4 52.4c-10.6 3-16 14-16 22zm-51 11 8.5-69.5-61.5-69h-25l67 76-7.2 59a27 27 0 0 0-23.3 26.9c0 15.1 12.3 27.3 27.3 27.3 15.1 0 27.3-12.2 27.3-27.3a27 27 0 0 0-13-23.1z"/>

  <g class="Letters">
    <path
      id="Letter0"
      d="m1416 392q0 39.1-14.6 65-14.6 25.9-41.1 38.9-26.4 12.9-62.1 12.9h-72.5v-224h77.5q36.2 0 61.3 12.4 25.1 12.4 38.2 36.3 13.2 23.9 13.2 58.5zm-62.8 2.15q0-20.4-5.52-33.7-5.36-13.5-16.2-20.1-10.9-6.74-27.4-6.74h-17.6v126h13.5q27.6 0 40.5-15.9 12.9-16.1 12.9-49z"/>
    <path
      id="Letter1"
      d="m1644 508h-133v-224h133v48.6h-72.5v35.2h67.1v48.6h-67.1v42.3h72.5z"/>
    <path
      id="Letter2"
      d="m1762 284h78.2q48.6 0 69.3 14.4t20.7 41.4q0 14.7-5.36 25-5.21 10.3-13.3 16.2-7.97 5.98-16.4 8.12v1.53q9.19 2.3 18.2 7.66 9.19 5.21 15.2 15.8 6.13 10.4 6.13 28.4 0 20.4-10.4 35.1-10.3 14.7-29.4 22.7-19.2 7.82-45.5 7.82h-87.2zm60.5 86h18.2q15 0 21.1-6.13 6.13-6.28 6.13-15.2 0-9.19-7.05-13.9-6.9-4.9-21.5-4.9h-17zm0 44.3v47h21.3q15.8 0 22.1-6.74 6.28-6.9 6.28-17.2 0-5.98-2.76-11.2-2.61-5.36-9.04-8.58-6.44-3.37-17.8-3.37z"/>
    <path
      id="Letter3"
      d="m2238 396q0 25.9-6.28 47.2-6.13 21.1-19.3 36.5t-33.9 23.6q-20.7 8.12-49.5 8.12-28.2 0-48.9-8.12-20.5-8.28-33.9-23.4-13.3-15.3-19.8-36.6-6.44-21.3-6.44-47.5 0-34.9 11.5-60.7 11.6-25.9 35.9-40 24.2-14.3 61.9-14.3 38.3 0 62.2 14.3 24.1 14.3 35.2 40.2 11.2 25.9 11.2 60.8zm-154 0q0 20.2 4.6 34.8 4.6 14.6 14.6 22.4 9.96 7.82 26.1 7.82 16.7 0 26.5-7.82 9.96-7.82 14.3-22.4 4.44-14.6 4.44-34.8 0-30.3-10.1-48-10.1-17.6-34.8-17.6-16.4 0-26.5 7.97-9.96 7.97-14.6 22.7-4.44 14.7-4.44 34.9z"/>
    <path
      id="Letter4"
      d="m2435 377h96.7v121q-17.3 5.98-39.7 9.81-22.4 3.68-46.9 3.68-32.3 0-56.7-12.6t-38-38.2q-13.6-25.7-13.6-65 0-35.2 13.5-60.8 13.5-25.7 39.7-39.7 26.4-14.1 64.5-14.1 21 0 39.8 3.98 18.8 3.98 32.8 10.1l-19.2 47.5q-12.1-5.98-25.1-8.89-13-3.06-28-3.06-20.1 0-32.3 9.04-12.1 9.04-17.6 24.2-5.52 15-5.52 33.3 0 20.8 5.82 35.2 5.98 14.3 17.3 21.8 11.5 7.36 27.7 7.36 5.36 0 13-0.766 7.82-0.766 11.8-1.84v-35.1h-40z"/>
  </g>
</svg>
