<svg id="Fortress" width="150" height="150" version="1.1" viewBox="0 0 150 150" xmlns="http://www.w3.org/2000/svg" xmlns:xlink="http://www.w3.org/1999/xlink">
	<script xlink:href="fortress.js"/>
	<style>
		#Fortress { cursor: pointer }
		rect { fill: #ff4000 }
	</style>
	<rect opacity="0" class="BottomDoor" x="65" y="101" width="20" height="27"/>
	<rect opacity="0" class="MiddleWindows" x="61" y="70" width="28" height="20"/>
	<rect opacity="0" class="TopLeftWindow" x="91" y="32" width="15" height="19"/>
	<rect opacity="0" class="TopRightWindow" x="44" y="32" width="15" height="19"/>
	<path fill="#333" stroke="#666" d="m33 52.6v5.67l3.46 4.64h0.394v0.861h-0.0976v9.33h20.6v16.1l-3.68 2.13v1.21h42.7v-1.21l-3.68-2.13v-16.1h20.6v-9.33h-4e-3v-0.861h0.311l3.46-4.64v-5.67zm35.2 19c1.7 1.15 3.17 3.94 3.17 5.53v11.9h-6.33v-11.9c0-1.64 1.51-4.35 3.17-5.56zm13.6 0c1.65 1.21 3.17 3.92 3.17 5.56v11.9h-6.33v-11.9c0-1.59 1.46-4.38 3.16-5.53zm-48.8-49.2v12.5l3.58 2.47v13h11.7v-9.85c0.596-2.53 1.4-3.68 3.22-5.52 1.82 1.83 2.62 2.99 3.22 5.52v9.86h11.7v-13l3.58-2.47v-12.5h-4.68v3.03h-2.94v-3.03h-5.26v3.03h-2.94v-3.03h-5.29v3.03h-2.94v-3.03h-5.26v3.03h-2.94v-3.03zm47.1 0v12.5l3.58 2.47v13h11.7v-9.86c0.596-2.53 1.4-3.68 3.22-5.52 1.82 1.83 2.62 2.99 3.22 5.52v9.85h11.7v-13l3.58-2.47v-12.5h-4.68v3.03h-2.94v-3.03h-5.26v3.03h-2.94v-3.03h-5.29v3.03h-2.94v-3.03h-5.26v3.03h-2.94v-3.03zm-62.1 53.2v12.7l3.97 2.51-3.97 32.4h-3.3v3.75h52v-11.9c0-0.681 0.255-1.6 0.69-2.65s1.06-2.25 1.81-3.42c1.51-2.34 3.54-4.62 5.74-5.55l0.109-0.046 0.109 0.046c2.2 0.934 4.23 3.21 5.74 5.55 0.755 1.17 1.38 2.36 1.81 3.42s0.69 1.97 0.69 2.65v11.9h52v-3.75h-3.3l-3.97-32.4 3.97-2.51v-12.7h-5v3.03h-2.58v-3.03h-5.62v3.03h-2.58v-3.03h-5.57v3.03h-2.58v-3.03h-5.62v3.03h-2.58v-3.03h-4.74l-0.186 12.7 3.56 2.51v4.02h-47.1v-4.02l3.56-2.51-0.186-12.7h-4.74v3.03h-2.58v-3.03h-5.62v3.03h-2.58v-3.03h-5.57v3.03h-2.58v-3.03h-5.62v3.03h-2.58v-3.03h-5z"/>
</svg>
