<svg id="Search" width="150" height="150" version="1.1" viewBox="0 0 150 150" xmlns="http://www.w3.org/2000/svg" xmlns:xlink="http://www.w3.org/1999/xlink">
	<script xlink:href="search.js"/>
	<style>#Search { cursor: pointer }</style>
	<path fill="#333" stroke="#666" d="m118 26.3h-25.8c-2.98-6.95-8.94-11.9-16.9-11.9s-14.9 4.96-16.9 11.9h-25.8c-6.95 0-11.9 5.96-11.9 11.9v85.4c0 6.95 5.96 11.9 11.9 11.9h85.4c6.95 0 11.9-5.96 11.9-11.9v-85.4c0-6.95-5.96-11.9-11.9-11.9zm-42.7 0c2.98 0 5.96 2.98 5.96 5.96s-2.98 5.96-5.96 5.96-5.96-2.98-5.96-5.96 2.98-5.96 5.96-5.96zm11.9 85.4h-42.7v-11.9h42.7zm17.9-24.8h-60.6v-11.9h60.6zm0-24.8h-60.6v-11.9h60.6z" />
	<path class="MagnifierGlass" fill="#ff4000" d="m62.1 69h-1.99l-0.993-0.993c2.98-2.98 3.97-6.95 3.97-10.9 0-8.94-7.94-16.9-16.9-16.9s-16.9 7.94-16.9 16.9 7.94 16.9 16.9 16.9c3.97 0 7.94-1.99 10.9-3.97l0.993 0.993v1.99l12.9 12.9 3.97-3.97zm-15.9 0c-6.95 0-11.9-4.96-11.9-11.9s4.96-11.9 11.9-11.9 11.9 4.96 11.9 11.9-4.96 11.9-11.9 11.9z" />
</svg>
