<svg xmlns="http://www.w3.org/2000/svg" viewBox="0 0 100 100">
	<style>
		.sunFG { fill: #000 }
	</style>
	<g fill="#ff4000" transform="scale(2) translate(-25, -25)">
		<path
			d="M66.464 50A16.464 16.464 0 0 1 50 66.464 16.464 16.464 0 0 1 33.536 50 16.464 16.464 0 0 1 50 33.536 16.464 16.464 0 0 1 66.464 50Z"/>
		<path
			class="sunFG"
			d="M60.322 50A10.322 10.322 0 0 1 50 60.322 10.322 10.322 0 0 1 39.678 50 10.322 10.322 0 0 1 50 39.678 10.322 10.322 0 0 1 60.322 50Z"/>
		<path
			d="M50 40.24a9.759 9.759 0 0 0-5.362 1.612 3.224 3.24 0 0 1 .05-.002 3.224 3.24 0 0 1 3.224 3.24 3.224 3.24 0 0 1-3.224 3.241 3.224 3.24 0 0 1-3.218-3.065A9.759 9.759 0 0 0 40.24 50a9.759 9.759 0 0 0 .207 1.982l6.843-3.34-.398 1.437-6.14 3.008a9.759 9.759 0 0 0 .29.746l2.322-1.117v1.239l-1.822.896A9.759 9.759 0 0 0 50 59.759a9.759 9.759 0 0 0 8.445-4.915l-1.809-.89v-1.238l2.316 1.113a9.759 9.759 0 0 0 .293-.743l-6.137-3.007-.398-1.438 6.836 3.337A9.759 9.759 0 0 0 59.759 50a9.759 9.759 0 0 0-1.234-4.743 3.224 3.24 0 0 1-3.216 3.074 3.224 3.24 0 0 1-3.224-3.24 3.224 3.24 0 0 1 3.224-3.24 3.224 3.24 0 0 1 .055.002A9.759 9.759 0 0 0 50 40.241z"/>
		<path
			class="sunFG"
			d="M48.645 53.75v-2.497l.18-.28v2.957h-2.97v-.959h2.152v.18h-1.973v.599h2.61zm3.368-.6v-.179h2.152v.959h-2.97v-2.956l.18.28v2.436l2.61-.02v-.52h-1.972zm-.479-9.806h-.359v.48h.599l.956-2.776-.458-.12zm-3.308.48h.599v-.48h-.36l-.737-2.416-.458.24zm.38.879h.657v9.666h-3.866v-1.837h2.75v-.5h-3.249v2.856h4.863V44.703H50.24v10.185h4.862v-2.856h-3.249v.5h2.75v1.837h-3.866v-9.666h.658l.259-.34h-1.196v-1.478h.658l.438-1.078-.458.12-.319.599h-1.554l-.22-.6-.458-.12.34 1.08h.657v1.477h-1.196z"/>
		<path
			class="sunFG"
			d="M53.535 56.127c-.04.2-.32.3-.638.26a17.322 17.322 0 0 0-5.919 0c-.298.06-.597-.06-.637-.26-.04-.2.18-.42.498-.48 2.053-.36 4.125-.36 6.178 0 .338.08.558.3.518.48zm-3.607 1.378 1.295-.3v-.779l.558.16v1.098l-1.873.46-1.814-.46v-1.098l.558-.16v.78l1.276.299zm2.75.898-2.75.76-2.69-.76v-1.138l.557-.16v.82l2.133.598 2.172-.599v-.819l.558.16v1.138zM41.212 50.614s-.3-1.058.12-2.396c0 0 .976 1.298 1.873 1.398l-1.993.998zm17.457-2.396c.418 1.338.12 2.396.12 2.396l-1.994-.978c.897-.12 1.874-1.418 1.874-1.418z"/>

		<path
			class="sunFG"
			d="M39.086 48.839c.011-.147.04-.304.058-.478l-1.782-.261a13.156 13.156 0 0 0-.137 1.997 14.004 14.004 0 0 1 1.861-1.258zm-1.474 4.271a12.52 12.52 0 0 1 1.513-1.67c-.022-.246-.053-.51-.074-.755l-1.8.123c.039.774.168 1.544.361 2.302zm.938 2.54c.33-.701.708-1.359 1.126-1.945-.063-.152-.097-.297-.16-.449l-1.706.539c.186.62.428 1.257.74 1.854zm-1.058-8.232c.685-.362 1.391-.642 2.092-.85.08-.232.16-.464.257-.706l-1.667-.678c-.31.736-.528 1.468-.682 2.234zm2.7 10.773a11.66 11.66 0 0 1 .63-2.158c-.137-.203-.268-.435-.388-.648l-1.561.879c.39.693.824 1.339 1.318 1.927zm4.174 1.233c-.217-.136-.423-.254-.632-.417l-1.04 1.475c.653.452 1.31.832 2.028 1.153-.183-.74-.32-1.482-.356-2.21zm6.96 1.492-.463.05.144 1.791c.673-.05 1.315-.154 1.983-.296a11.108 11.108 0 0 1-1.664-1.545zm-3.352 1.723c.772.127 1.55.18 2.316.171a12.161 12.161 0 0 1-1.296-1.846c-.248-.025-.495-.05-.753-.092l-.267 1.766zm-5.676-4.814c-.106-.105-.221-.227-.327-.331l-1.315 1.232c.462.489.96.958 1.49 1.362-.02-.784.024-1.535.152-2.263zm.317-15.96-1.216-1.329a13.476 13.476 0 0 0-1.573 1.729c.783-.02 1.533.027 2.25.138.173-.19.346-.382.539-.537zm13.042-1.275c.216.136.423.254.632.418l1.039-1.475a14.052 14.052 0 0 0-2.028-1.154c.183.74.293 1.475.357 2.211zm3.692.709c-.462-.49-.96-.959-1.49-1.362a13.59 13.59 0 0 1-.162 2.245c.106.104.221.227.327.331l1.325-1.214zm.455.517a11.66 11.66 0 0 1-.631 2.158c.138.203.268.434.388.648l1.561-.88a10.989 10.989 0 0 0-1.318-1.926Zm1.658 2.532c-.33.7-.707 1.358-1.125 1.944.063.152.097.297.16.449l1.705-.539a14.975 14.975 0 0 0-.74-1.854Zm-17.38-3.612c.141-.08.256-.167.398-.247l-.899-1.555c-.585.33-1.14.712-1.648 1.138a11.61 11.61 0 0 1 2.149.664zm2.79-1.266-.505-1.73c-.736.228-1.46.518-2.173.872a11.87 11.87 0 0 1 1.97 1.093c.233-.085.466-.169.709-.235zm1.815-.389.462-.05-.144-1.792c-.672.051-1.314.155-1.982.297.626.49 1.172 1.003 1.664 1.545zm3.344-1.695a13.27 13.27 0 0 0-2.316-.172c.495.588.936 1.206 1.296 1.847.248.024.495.049.735.101l.285-1.776zm-13.605 7.165c.756-.192 1.49-.3 2.217-.335.084-.14.179-.264.245-.395l-1.482-1.015a14.712 14.712 0 0 0-.98 1.745zm22.483 6.617c-.011.147-.04.303-.058.478l1.782.261a13.17 13.17 0 0 0 .137-1.997c-.586.494-1.212.916-1.861 1.258zm1.611 1.411c-.684.362-1.39.642-2.091.85-.08.232-.16.464-.257.706l1.666.678c.302-.709.529-1.469.682-2.234zm-9.388 7.976.506 1.729c.736-.227 1.46-.518 2.173-.872a11.868 11.868 0 0 1-1.97-1.092c-.233.084-.466.169-.709.235zm9.269-13.668c-.471.616-.972 1.179-1.513 1.67.021.246.053.51.074.755l1.8-.123a15.512 15.512 0 0 0-.361-2.302zm-.832 8.569c-.756.191-1.49.3-2.217.335-.084.14-.179.264-.245.395l1.482 1.015a14.72 14.72 0 0 0 .98-1.745zm-5.655 3.815c-.142.08-.256.167-.398.247l.898 1.555c.585-.33 1.14-.712 1.649-1.138a10.646 10.646 0 0 1-2.15-.664zm4.265-1.511c-.783.02-1.533-.027-2.25-.139-.173.191-.356.365-.549.52l1.216 1.33a12.252 12.252 0 0 0 1.583-1.711zm-7.466-20.242c.345.695.616 1.385.825 2.088l.446.17.646-1.675a11.574 11.574 0 0 0-1.917-.583zm-5.43 24.971a13.013 13.013 0 0 1-.826-2.088l-.446-.17-.646 1.675c.633.252 1.263.46 1.917.583z">
			<animateTransform
				attributeType="XML"
				attributeName="transform"
				type="rotate"
				from="0,50,50"
				to="360,50,50"
				dur="60.0s"
				repeatCount="indefinite"/>
		</path>

		<path
			class="sunFG"
			d="M63.559 48.708c.027.34.055.7.062 1.042.007.34-.005.702-.018 1.043l1.023-1.065-1.067-1.02zm-.052-.58 1.66 1.589-1.592 1.658c-.134 1.286-.429 2.536-.907 3.689l2.146-.226.019-.04c.529-1.616.794-3.326.756-5.11a15.382 15.382 0 0 0-1.5-6.345l-1.391 1.694c.362.995.646 2.031.809 3.09zm1.612-.736.028 1.343-.361.007-.029-1.343.362-.007zm.07 3.307.028 1.343-.362.008-.028-1.343.362-.008zm-.782 2.944a.536.536 0 0 1-.247.707.538.538 0 0 1-.708-.245.536.536 0 0 1 .246-.707.531.531 0 0 1 .709.245zm-.723-7.585a.541.543 88.792 0 1-.554-.53.541.543 88.792 0 1 .531-.552.541.543 88.792 0 1 .554.53.541.543 88.792 0 1-.531.552zm-3.183 12.616c-.221.26-.456.534-.692.78-.236.247-.5.493-.75.725l1.475-.029-.033-1.476zm.374-.447.05 2.298-2.298.046c-1.004.815-2.096 1.49-3.25 1.967l1.677 1.358.042-.015a15.312 15.312 0 0 0 4.148-3.078 15.382 15.382 0 0 0 3.426-5.548l-2.182.214a16.29 16.29 0 0 1-1.614 2.757zm1.66.62-.93.97-.26-.251.929-.97.261.25zm-2.29 2.387-.929.97-.261-.25.93-.97.26.25zm-2.634 1.53a.536.536 0 0 1-.674.325.538.538 0 0 1-.328-.675.536.536 0 0 1 .674-.326c.287.108.421.404.328.675zm4.852-5.875a.543.541 43.792 0 1-.017-.766.543.541 43.792 0 1 .766-.016.543.541 43.792 0 1 .017.767.543.541 43.792 0 1-.766.015zm-11.171 6.67c-.34.027-.7.055-1.042.062-.34.007-.702-.005-1.043-.018l1.065 1.023 1.02-1.067zm.58-.052-1.589 1.661-1.658-1.593c-1.286-.134-2.536-.429-3.689-.907l.226 2.146.04.019c1.616.529 3.326.794 5.11.756a15.382 15.382 0 0 0 6.345-1.5l-1.693-1.391a16.29 16.29 0 0 1-3.092.809zm.736 1.612-1.343.028-.007-.361 1.343-.029.007.362zm-3.307.07-1.343.028-.008-.362 1.343-.028.008.362zm-2.944-.782a.536.536 0 0 1-.707-.247.538.538 0 0 1 .245-.708.536.536 0 0 1 .707.246.531.531 0 0 1-.245.709zm7.585-.723a.543.541 88.792 0 1 .53-.554.543.541 88.792 0 1 .552.531.543.541 88.792 0 1-.53.554.543.541 88.792 0 1-.552-.531zm-12.616-3.183c-.26-.221-.534-.456-.78-.692-.246-.236-.493-.5-.725-.75l.03 1.475 1.475-.033zm.447.374-2.298.05-.046-2.298c-.815-1.004-1.49-2.096-1.967-3.25l-1.358 1.677.015.042a15.312 15.312 0 0 0 3.078 4.148 15.382 15.382 0 0 0 5.548 3.426l-.214-2.181a16.29 16.29 0 0 1-2.757-1.614Zm-.62 1.66-.969-.93.25-.26.97.929-.25.261zm-2.387-2.29-.97-.929.25-.261.97.93-.25.26zm-1.53-2.634a.536.536 0 0 1-.325-.674.538.538 0 0 1 .675-.328c.271.094.42.403.326.675a.531.531 0 0 1-.675.327zm5.875 4.852a.541.543 43.792 0 1 .766-.017.541.543 43.792 0 1 .016.766.541.543 43.792 0 1-.767.017.541.543 43.792 0 1-.015-.766zm-6.67-11.171c-.027-.34-.055-.7-.062-1.041-.007-.341.005-.702.018-1.044l-1.023 1.065 1.067 1.02zm.053.58-1.662-1.589 1.593-1.658c.134-1.286.429-2.536.907-3.689l-2.146.226-.019.04a15.312 15.312 0 0 0-.756 5.11c.047 2.265.575 4.42 1.5 6.345l1.391-1.693a16.29 16.29 0 0 1-.809-3.092zm-1.613.736-.028-1.343.361-.007.029 1.343-.362.007zm-.07-3.307-.028-1.343.362-.008.028 1.343-.362.008zm.782-2.944a.536.536 0 0 1 .247-.707.538.538 0 0 1 .708.245.536.536 0 0 1-.246.707.531.531 0 0 1-.709-.245zm.723 7.585a.541.543 88.792 0 1 .554.53.541.543 88.792 0 1-.531.552.541.543 88.792 0 1-.554-.53.541.543 88.792 0 1 .531-.552zM39.5 41.326c.221-.26.456-.534.692-.78.236-.246.5-.493.75-.725l-1.475.03.033 1.475zm-.373.447-.052-2.298 2.3-.046c1.003-.815 2.095-1.49 3.249-1.967l-1.677-1.358-.042.016a15.312 15.312 0 0 0-4.148 3.078 15.382 15.382 0 0 0-3.426 5.547l2.181-.214c.448-.96.98-1.893 1.614-2.757zm-1.66-.62.929-.969.26.25-.929.97-.26-.25zm2.288-2.387.93-.97.261.25-.93.97-.26-.25zm2.635-1.53a.536.536 0 0 1 .674-.325c.272.094.421.403.328.675a.536.536 0 0 1-.674.326.531.531 0 0 1-.328-.675zm-4.852 5.875a.543.541 43.792 0 1 .017.766.543.541 43.792 0 1-.766.016.543.541 43.792 0 1-.017-.767.543.541 43.792 0 1 .766-.015zm11.171-6.67c.34-.027.7-.055 1.042-.062.34-.007.702.005 1.043.018l-1.065-1.022-1.02 1.066zm-.58.053 1.589-1.662 1.658 1.593c1.286.134 2.536.429 3.689.907l-.226-2.146-.04-.019a15.312 15.312 0 0 0-5.11-.756c-2.265.047-4.42.575-6.345 1.5l1.693 1.391a16.29 16.29 0 0 1 3.092-.808zm-.736-1.613 1.343-.028.007.361-1.343.029-.007-.362zm3.307-.07 1.343-.028.008.362-1.343.028-.008-.362zm2.944.782a.536.536 0 0 1 .707.247.538.538 0 0 1-.245.708.536.536 0 0 1-.707-.246.531.531 0 0 1 .245-.709zm-7.585.723a.543.541 88.792 0 1-.53.554.543.541 88.792 0 1-.552-.531.543.541 88.792 0 1 .53-.554.543.541 88.792 0 1 .552.531zM58.674 39.5c.26.221.534.457.78.692.247.236.493.5.725.75l-.03-1.475-1.475.033zm-.447-.373 2.298-.052.046 2.3c.815 1.003 1.49 2.095 1.967 3.249l1.358-1.677-.015-.042a15.312 15.312 0 0 0-3.078-4.148 15.382 15.382 0 0 0-5.548-3.426l.214 2.182c.96.447 1.893.98 2.758 1.613zm.62-1.66.97.929-.251.26-.97-.929.25-.26zm2.387 2.288.97.93-.25.261-.97-.93.25-.26zm1.53 2.635c.27.094.419.403.325.674a.538.538 0 0 1-.675.328.536.536 0 0 1-.326-.674.531.531 0 0 1 .675-.328zm-5.875-4.852a.541.543 43.792 0 1-.766.017.541.543 43.792 0 1-.016-.766.541.543 43.792 0 1 .767-.017.541.543 43.792 0 1 .015.766z">
			<animateTransform
				attributeType="XML"
				attributeName="transform"
				type="rotate"
				from="0,50,50"
				to="-360,50,50"
				dur="60.0s"
				repeatCount="indefinite"/>
		</path>

		<path
			d="m62.319 35.215-4.54.506.68.41a16.04 16.04 0 0 1 2.329 1.724l.002.002.412.394a15.532 15.532 0 0 1 2.351 2.827l.397.62.096-.73.463-3.537-2.532.288.342-2.504z"/>

		<path
			class="sunFG"
			d="m61.693 35.826-.223 1.644-.286.03c-.585-.52-1.228-.972-1.882-1.408l2.39-.266zM63.886 38.043l-.287 2.193a16.113 16.113 0 0 0-1.65-1.973l1.937-.22z"/>

		<path
			d="m61.288 36.22-.12.838c-.278-.24-.577-.48-.876-.719l.996-.12zM63.5 38.416l-.12.919c-.218-.28-.458-.56-.697-.819l.817-.1z"/>
		<path
			d="m35.215 37.681.506 4.54.41-.68a16.04 16.04 0 0 1 1.724-2.329l.002-.002.394-.412a15.532 15.532 0 0 1 2.827-2.351l.62-.397-.73-.096-3.537-.463.288 2.532-2.504-.342z"/>
		<path
			class="sunFG"
			d="m35.826 38.307 1.644.223.03.286c-.52.585-.972 1.228-1.408 1.882l-.266-2.39zM38.043 36.114l2.193.287c-.705.5-1.363 1.05-1.973 1.65l-.22-1.937z"/>
		<path
			d="m36.22 38.712.838.12c-.24.278-.48.577-.719.876l-.12-.996zM38.416 36.5l.919.12c-.28.218-.56.458-.819.697l-.1-.817z"/>
		<path
			d="m37.681 64.785 4.54-.506-.68-.41a16.04 16.04 0 0 1-2.329-1.724l-.002-.002-.412-.394a15.532 15.532 0 0 1-2.351-2.827l-.397-.62-.096.73-.463 3.537 2.532-.288-.342 2.504z"/>
		<path
			class="sunFG"
			d="m38.307 64.174.223-1.644.286-.03c.585.52 1.228.972 1.882 1.408l-2.39.266zM36.114 61.957l.287-2.193c.5.705 1.05 1.363 1.65 1.973l-1.937.22z"/>
		<path
			d="m38.712 63.78.12-.838c.278.24.577.48.876.719l-.996.12zM36.5 61.584l.12-.919c.218.28.458.56.697.819l-.817.1z"/>
		<path
			d="m64.785 62.319-.505-4.54-.41.68a16.04 16.04 0 0 1-1.725 2.329l-.002.002-.394.412a15.532 15.532 0 0 1-2.827 2.351l-.62.397.73.096 3.537.463-.288-2.532 2.504.342z"/>
		<path
			class="sunFG"
			d="m64.174 61.693-1.644-.223-.03-.286c.52-.585.972-1.228 1.408-1.882l.266 2.39zM61.957 63.886l-2.193-.287c.705-.5 1.363-1.05 1.973-1.65l.22 1.937z"/>
		<path
			d="m63.78 61.288-.838-.12c.24-.278.48-.577.719-.876l.12.996zM61.584 63.5l-.919-.12c.28-.218.56-.458.819-.697l.1.817z"/>
		<path
			d="m48.197 27.467-2.7 6.91.43-.107a16.1 16.1 0 0 1 2.95-.463l.031-.001-.004.011.364-.03c.232-.02.47-.02.715-.02 1.203 0 2.389.14 3.535.383l.409.086-2.557-6.764-1.626 4.182-1.547-4.187z"/>
		<path
			class="sunFG"
			d="m51.329 28.797 1.817 4.797a15.05 15.05 0 0 0-3.555-.331ZM48.218 28.802l1.101 2.98-.6 1.533c-.822.058-1.624.2-2.417.38z"/>
		<path
			d="m46.928 33.144 1.275-3.276.698 1.898-.438 1.158c-.543.046-1.039.127-1.535.22zM51.332 29.868l1.196 3.196c-.772-.146-1.57-.211-2.372-.2z"/>
		<path
			d="m27.467 51.803 6.91 2.7-.107-.43a16.1 16.1 0 0 1-.463-2.95l-.001-.031.011.004-.03-.364c-.02-.232-.02-.47-.02-.715 0-1.203.14-2.389.383-3.535l.086-.409-6.764 2.557 4.182 1.626-4.187 1.547z"/>
		<path
			class="sunFG"
			d="m28.797 48.671 4.797-1.817a15.05 15.05 0 0 0-.331 3.555zM28.802 51.782l2.98-1.101 1.533.6c.058.822.2 1.624.38 2.417z"/>
		<path
			d="m33.144 53.072-3.276-1.275 1.898-.698 1.158.438c.046.543.127 1.039.22 1.535zM29.868 48.668l3.196-1.196c-.146.772-.211 1.57-.2 2.372z"/>
		<path
			d="m51.803 72.533 2.7-6.91-.43.107a16.1 16.1 0 0 1-2.95.463l-.031.001.004-.011-.364.03c-.232.02-.47.02-.715.02-1.203 0-2.389-.14-3.535-.383l-.409-.086 2.557 6.764 1.626-4.182 1.547 4.187z"/>
		<path
			class="sunFG"
			d="m48.671 71.203-1.817-4.797a15.05 15.05 0 0 0 3.555.331zM51.782 71.198l-1.101-2.98.6-1.533c.822-.058 1.624-.2 2.417-.38z"/>
		<path
			d="m53.072 66.856-1.275 3.276-.698-1.898.438-1.158a14.934 14.934 0 0 0 1.535-.22zM48.668 70.132l-1.196-3.196c.772.146 1.57.211 2.372.2z"/>
		<path
			d="m72.533 48.197-6.91-2.7.107.43a16.1 16.1 0 0 1 .463 2.95l.001.031-.011-.004.03.364c.02.232.02.47.02.715 0 1.203-.14 2.389-.383 3.535l-.086.409 6.764-2.557-4.182-1.626 4.187-1.547z"/>
		<path
			class="sunFG"
			d="m71.203 51.329-4.797 1.817a15.05 15.05 0 0 0 .331-3.555zM71.198 48.218l-2.98 1.101-1.533-.6c-.058-.822-.2-1.624-.38-2.417z"/>
		<path
			d="m66.856 46.928 3.276 1.275-1.898.698-1.158-.438a14.934 14.934 0 0 0-.22-1.535zM70.132 51.332l-3.196 1.196c.146-.772.211-1.57.2-2.372z"/>
		<path
			d="m58.058 44.557.028.297c.007.08.01.16.01.24v.002a2.797 2.797 0 0 1-2.79 2.796 2.793 2.793 0 0 1-2.665-1.968l-.088-.286.293-.057 5.212-1.024zm-.52.65-4.248.834c.367.784 1.133 1.314 2.016 1.314 1.208 0 2.17-.952 2.232-2.148zM55.306 42.3c.3 0 .588.048.858.136a9.762 9.762 0 0 1 1.577 1.634l-5.226 1.032v-.006a2.799 2.799 0 0 1 2.791-2.796zm-13.364 2.257-.028.297c-.007.08-.01.16-.01.24v.002a2.797 2.797 0 0 0 2.79 2.796 2.793 2.793 0 0 0 2.665-1.968l.088-.286-.293-.057-5.212-1.024zm.52.65 4.248.834c-.367.784-1.133 1.314-2.016 1.314-1.208 0-2.17-.952-2.232-2.148zm2.232-2.907c-.3 0-.588.048-.858.136a9.762 9.762 0 0 0-1.577 1.634l5.226 1.032v-.006a2.799 2.799 0 0 0-2.791-2.796z"/>
	</g>
</svg>
